# xmcd
#
# Track frame offsets: 
#        150
#        16503
#        31587
#        51046
#
# Disc length: 816 seconds
#
# Revision: 0
# Processed by: cddbd v1.5.2PL0 Copyright (c) Steve Scherf et al.
# Submitted via: ExactAudioCopy v0.99pb4
#
DISCID=1b032e04
DTITLE=Virus B-23 - Supergroover
DYEAR=2002
DGENRE=Blues
TTITLE0=Supergroover
TTITLE1=Boogiewaltz
TTITLE2=Don't Ever Loose That Rhythm
TTITLE3=Salut Monique
EXTD=
EXTT0=
EXTT1=
EXTT2=
EXTT3=
PLAYORDER=
